<svg width="162" height="57" viewBox="0 0 162 57" fill="none" xmlns="http://www.w3.org/2000/svg">
<path d="M31.5 33.3486H49.5V51.9437H31.5V33.3486Z" fill="#2160FD"/>
<path d="M40.5 5.53231C39.7563 5.48174 39.0061 5.45605 38.25 5.45605C19.6104 5.45605 4.5 21.066 4.5 40.3218C4.5 41.1022 4.52482 41.8767 4.5737 42.6443H27V28.6981H40.5V5.53231Z" fill="#2160FD"/>
<mask id="path-3-outside-1_5_10" maskUnits="userSpaceOnUse" x="59" y="13" width="60" height="30" fill="black">
<rect fill="white" x="59" y="13" width="60" height="30"/>
<path d="M72.1932 14.8182H75.3636V33.5341C75.3636 35.2045 75.0568 36.6236 74.4432 37.7912C73.8295 38.9588 72.9645 39.8452 71.848 40.4503C70.7315 41.0554 69.4148 41.358 67.8977 41.358C66.4659 41.358 65.1918 41.098 64.0753 40.5781C62.9588 40.0497 62.081 39.2997 61.4418 38.3281C60.8026 37.3565 60.483 36.2017 60.483 34.8636H63.6023C63.6023 35.6051 63.7855 36.2528 64.152 36.8068C64.527 37.3523 65.0384 37.7784 65.6861 38.0852C66.3338 38.392 67.071 38.5455 67.8977 38.5455C68.8097 38.5455 69.5852 38.3537 70.2244 37.9702C70.8636 37.5866 71.3494 37.0241 71.6818 36.2827C72.0227 35.5327 72.1932 34.6165 72.1932 33.5341V14.8182ZM93.6832 32.9716V21.3636H96.7003V41H93.6832V37.6761H93.4787C93.0185 38.6733 92.3026 39.5213 91.331 40.2202C90.3594 40.9105 89.1321 41.2557 87.6491 41.2557C86.4219 41.2557 85.331 40.9872 84.3764 40.4503C83.4219 39.9048 82.6719 39.0866 82.1264 37.9957C81.581 36.8963 81.3082 35.5114 81.3082 33.8409V21.3636H84.3253V33.6364C84.3253 35.0682 84.7259 36.2102 85.527 37.0625C86.3366 37.9148 87.3679 38.3409 88.6207 38.3409C89.3707 38.3409 90.1335 38.1491 90.9091 37.7656C91.6932 37.3821 92.3494 36.794 92.8778 36.0014C93.4148 35.2088 93.6832 34.1989 93.6832 32.9716ZM105.243 29.1875V41H102.226V21.3636H105.141V24.4318H105.397C105.857 23.4347 106.556 22.6335 107.493 22.0284C108.431 21.4148 109.641 21.108 111.124 21.108C112.453 21.108 113.617 21.3807 114.614 21.9261C115.611 22.4631 116.387 23.2812 116.941 24.3807C117.495 25.4716 117.772 26.8523 117.772 28.5227V41H114.755V28.7273C114.755 27.1847 114.354 25.983 113.553 25.1222C112.752 24.2528 111.652 23.8182 110.255 23.8182C109.292 23.8182 108.431 24.027 107.672 24.4446C106.922 24.8622 106.33 25.4716 105.895 26.2727C105.461 27.0739 105.243 28.0455 105.243 29.1875Z"/>
</mask>
<path d="M72.1932 14.8182H75.3636V33.5341C75.3636 35.2045 75.0568 36.6236 74.4432 37.7912C73.8295 38.9588 72.9645 39.8452 71.848 40.4503C70.7315 41.0554 69.4148 41.358 67.8977 41.358C66.4659 41.358 65.1918 41.098 64.0753 40.5781C62.9588 40.0497 62.081 39.2997 61.4418 38.3281C60.8026 37.3565 60.483 36.2017 60.483 34.8636H63.6023C63.6023 35.6051 63.7855 36.2528 64.152 36.8068C64.527 37.3523 65.0384 37.7784 65.6861 38.0852C66.3338 38.392 67.071 38.5455 67.8977 38.5455C68.8097 38.5455 69.5852 38.3537 70.2244 37.9702C70.8636 37.5866 71.3494 37.0241 71.6818 36.2827C72.0227 35.5327 72.1932 34.6165 72.1932 33.5341V14.8182ZM93.6832 32.9716V21.3636H96.7003V41H93.6832V37.6761H93.4787C93.0185 38.6733 92.3026 39.5213 91.331 40.2202C90.3594 40.9105 89.1321 41.2557 87.6491 41.2557C86.4219 41.2557 85.331 40.9872 84.3764 40.4503C83.4219 39.9048 82.6719 39.0866 82.1264 37.9957C81.581 36.8963 81.3082 35.5114 81.3082 33.8409V21.3636H84.3253V33.6364C84.3253 35.0682 84.7259 36.2102 85.527 37.0625C86.3366 37.9148 87.3679 38.3409 88.6207 38.3409C89.3707 38.3409 90.1335 38.1491 90.9091 37.7656C91.6932 37.3821 92.3494 36.794 92.8778 36.0014C93.4148 35.2088 93.6832 34.1989 93.6832 32.9716ZM105.243 29.1875V41H102.226V21.3636H105.141V24.4318H105.397C105.857 23.4347 106.556 22.6335 107.493 22.0284C108.431 21.4148 109.641 21.108 111.124 21.108C112.453 21.108 113.617 21.3807 114.614 21.9261C115.611 22.4631 116.387 23.2812 116.941 24.3807C117.495 25.4716 117.772 26.8523 117.772 28.5227V41H114.755V28.7273C114.755 27.1847 114.354 25.983 113.553 25.1222C112.752 24.2528 111.652 23.8182 110.255 23.8182C109.292 23.8182 108.431 24.027 107.672 24.4446C106.922 24.8622 106.33 25.4716 105.895 26.2727C105.461 27.0739 105.243 28.0455 105.243 29.1875Z" fill="black"/>
<path d="M72.1932 14.8182V13.8182H71.1932V14.8182H72.1932ZM75.3636 14.8182H76.3636V13.8182H75.3636V14.8182ZM74.4432 37.7912L75.3284 38.2564L75.3284 38.2564L74.4432 37.7912ZM71.848 40.4503L72.3245 41.3295L72.3245 41.3295L71.848 40.4503ZM64.0753 40.5781L63.6475 41.482L63.6532 41.4847L64.0753 40.5781ZM61.4418 38.3281L60.6063 38.8777L60.6063 38.8777L61.4418 38.3281ZM60.483 34.8636V33.8636H59.483V34.8636H60.483ZM63.6023 34.8636H64.6023V33.8636H63.6023V34.8636ZM64.152 36.8068L63.318 37.3586L63.3229 37.366L63.3279 37.3733L64.152 36.8068ZM65.6861 38.0852L66.1142 37.1815L66.1142 37.1815L65.6861 38.0852ZM70.2244 37.9702L69.7099 37.1127L69.7099 37.1127L70.2244 37.9702ZM71.6818 36.2827L70.7714 35.8689L70.7693 35.8736L71.6818 36.2827ZM72.1932 14.8182V15.8182H75.3636V14.8182V13.8182H72.1932V14.8182ZM75.3636 14.8182H74.3636V33.5341H75.3636H76.3636V14.8182H75.3636ZM75.3636 33.5341H74.3636C74.3636 35.0846 74.0788 36.335 73.558 37.326L74.4432 37.7912L75.3284 38.2564C76.0349 36.9121 76.3636 35.3245 76.3636 33.5341H75.3636ZM74.4432 37.7912L73.558 37.326C73.0328 38.3253 72.3067 39.0642 71.3715 39.5711L71.848 40.4503L72.3245 41.3295C73.6222 40.6261 74.6263 39.5923 75.3284 38.2564L74.4432 37.7912ZM71.848 40.4503L71.3715 39.5711C70.4273 40.0828 69.2807 40.358 67.8977 40.358V41.358V42.358C69.5489 42.358 71.0357 42.0279 72.3245 41.3295L71.848 40.4503ZM67.8977 41.358V40.358C66.5882 40.358 65.4618 40.1207 64.4974 39.6716L64.0753 40.5781L63.6532 41.4847C64.9217 42.0753 66.3437 42.358 67.8977 42.358V41.358ZM64.0753 40.5781L64.5031 39.6742C63.5417 39.2192 62.8092 38.5872 62.2772 37.7785L61.4418 38.3281L60.6063 38.8777C61.3527 40.0122 62.376 40.8802 63.6475 41.482L64.0753 40.5781ZM61.4418 38.3281L62.2772 37.7785C61.7608 36.9936 61.483 36.0365 61.483 34.8636H60.483H59.483C59.483 36.3669 59.8443 37.7194 60.6063 38.8777L61.4418 38.3281ZM60.483 34.8636V35.8636H63.6023V34.8636V33.8636H60.483V34.8636ZM63.6023 34.8636H62.6023C62.6023 35.7777 62.8309 36.6223 63.318 37.3586L64.152 36.8068L64.986 36.2551C64.7401 35.8834 64.6023 35.4325 64.6023 34.8636H63.6023ZM64.152 36.8068L63.3279 37.3733C63.8111 38.0761 64.4645 38.6131 65.258 38.989L65.6861 38.0852L66.1142 37.1815C65.6122 36.9437 65.2429 36.6284 64.976 36.2403L64.152 36.8068ZM65.6861 38.0852L65.258 38.989C66.0586 39.3682 66.9456 39.5455 67.8977 39.5455V38.5455V37.5455C67.1964 37.5455 66.609 37.4159 66.1142 37.1815L65.6861 38.0852ZM67.8977 38.5455V39.5455C68.9505 39.5455 69.913 39.3232 70.7389 38.8277L70.2244 37.9702L69.7099 37.1127C69.2575 37.3841 68.6688 37.5455 67.8977 37.5455V38.5455ZM70.2244 37.9702L70.7389 38.8277C71.5694 38.3294 72.1862 37.6022 72.5943 36.6917L71.6818 36.2827L70.7693 35.8736C70.5127 36.4461 70.1578 36.8439 69.7099 37.1127L70.2244 37.9702ZM71.6818 36.2827L72.5922 36.6965C73.0076 35.7825 73.1932 34.7164 73.1932 33.5341H72.1932H71.1932C71.1932 34.5165 71.0378 35.2828 70.7715 35.8689L71.6818 36.2827ZM72.1932 33.5341H73.1932V14.8182H72.1932H71.1932V33.5341H72.1932ZM93.6832 21.3636V20.3636H92.6832V21.3636H93.6832ZM96.7003 21.3636H97.7003V20.3636H96.7003V21.3636ZM96.7003 41V42H97.7003V41H96.7003ZM93.6832 41H92.6832V42H93.6832V41ZM93.6832 37.6761H94.6832V36.6761H93.6832V37.6761ZM93.4787 37.6761V36.6761H92.8389L92.5707 37.2571L93.4787 37.6761ZM91.331 40.2202L91.9102 41.0354L91.9149 41.032L91.331 40.2202ZM84.3764 40.4503L83.8803 41.3185L83.8862 41.3219L84.3764 40.4503ZM82.1264 37.9957L81.2306 38.4402L81.232 38.443L82.1264 37.9957ZM81.3082 21.3636V20.3636H80.3082V21.3636H81.3082ZM84.3253 21.3636H85.3253V20.3636H84.3253V21.3636ZM85.527 37.0625L84.7984 37.7474L84.802 37.7512L85.527 37.0625ZM90.9091 37.7656L90.4697 36.8673L90.4658 36.8692L90.9091 37.7656ZM92.8778 36.0014L92.0499 35.4406L92.0458 35.4467L92.8778 36.0014ZM93.6832 32.9716H94.6832V21.3636H93.6832H92.6832V32.9716H93.6832ZM93.6832 21.3636V22.3636H96.7003V21.3636V20.3636H93.6832V21.3636ZM96.7003 21.3636H95.7003V41H96.7003H97.7003V21.3636H96.7003ZM96.7003 41V40H93.6832V41V42H96.7003V41ZM93.6832 41H94.6832V37.6761H93.6832H92.6832V41H93.6832ZM93.6832 37.6761V36.6761H93.4787V37.6761V38.6761H93.6832V37.6761ZM93.4787 37.6761L92.5707 37.2571C92.1892 38.0837 91.5915 38.801 90.747 39.4084L91.331 40.2202L91.9149 41.032C93.0136 40.2416 93.8477 39.2629 94.3867 38.0952L93.4787 37.6761ZM91.331 40.2202L90.7518 39.405C89.9868 39.9485 88.9757 40.2557 87.6491 40.2557V41.2557V42.2557C89.2885 42.2557 90.7319 41.8725 91.9102 41.0354L91.331 40.2202ZM87.6491 41.2557V40.2557C86.5725 40.2557 85.6542 40.0217 84.8667 39.5787L84.3764 40.4503L83.8862 41.3219C85.0078 41.9528 86.2713 42.2557 87.6491 42.2557V41.2557ZM84.3764 40.4503L84.8726 39.582C84.1079 39.1451 83.488 38.4829 83.0208 37.5485L82.1264 37.9957L81.232 38.443C81.8557 39.6904 82.7358 40.6646 83.8803 41.3185L84.3764 40.4503ZM82.1264 37.9957L83.0222 37.5513C82.5654 36.6306 82.3082 35.41 82.3082 33.8409H81.3082H80.3082C80.3082 35.6127 80.5965 37.162 81.2306 38.4402L82.1264 37.9957ZM81.3082 33.8409H82.3082V21.3636H81.3082H80.3082V33.8409H81.3082ZM81.3082 21.3636V22.3636H84.3253V21.3636V20.3636H81.3082V21.3636ZM84.3253 21.3636H83.3253V33.6364H84.3253H85.3253V21.3636H84.3253ZM84.3253 33.6364H83.3253C83.3253 35.2626 83.7857 36.6701 84.7984 37.7474L85.527 37.0625L86.2556 36.3776C85.666 35.7504 85.3253 34.8738 85.3253 33.6364H84.3253ZM85.527 37.0625L84.802 37.7512C85.8139 38.8164 87.1139 39.3409 88.6207 39.3409V38.3409V37.3409C87.6219 37.3409 86.8594 37.0131 86.252 36.3738L85.527 37.0625ZM88.6207 38.3409V39.3409C89.5465 39.3409 90.4602 39.1032 91.3524 38.662L90.9091 37.7656L90.4658 36.8692C89.8069 37.1951 89.195 37.3409 88.6207 37.3409V38.3409ZM90.9091 37.7656L91.3485 38.6639C92.3059 38.1956 93.0925 37.4821 93.7099 36.5561L92.8778 36.0014L92.0458 35.4467C91.6063 36.1059 91.0805 36.5686 90.4697 36.8673L90.9091 37.7656ZM92.8778 36.0014L93.7058 36.5623C94.3826 35.5631 94.6832 34.3427 94.6832 32.9716H93.6832H92.6832C92.6832 34.055 92.4469 34.8545 92.0499 35.4406L92.8778 36.0014ZM105.243 41V42H106.243V41H105.243ZM102.226 41H101.226V42H102.226V41ZM102.226 21.3636V20.3636H101.226V21.3636H102.226ZM105.141 21.3636H106.141V20.3636H105.141V21.3636ZM105.141 24.4318H104.141V25.4318H105.141V24.4318ZM105.397 24.4318V25.4318H106.036L106.305 24.8509L105.397 24.4318ZM107.493 22.0284L108.036 22.8686L108.041 22.8651L107.493 22.0284ZM114.614 21.9261L114.134 22.8035L114.14 22.8066L114.614 21.9261ZM116.941 24.3807L116.048 24.8307L116.049 24.8335L116.941 24.3807ZM117.772 41V42H118.772V41H117.772ZM114.755 41H113.755V42H114.755V41ZM113.553 25.1222L112.818 25.7998L112.821 25.8034L113.553 25.1222ZM107.672 24.4446L107.19 23.5686L107.186 23.5709L107.672 24.4446ZM105.895 26.2727L105.016 25.7958L105.016 25.7958L105.895 26.2727ZM105.243 29.1875H104.243V41H105.243H106.243V29.1875H105.243ZM105.243 41V40H102.226V41V42H105.243V41ZM102.226 41H103.226V21.3636H102.226H101.226V41H102.226ZM102.226 21.3636V22.3636H105.141V21.3636V20.3636H102.226V21.3636ZM105.141 21.3636H104.141V24.4318H105.141H106.141V21.3636H105.141ZM105.141 24.4318V25.4318H105.397V24.4318V23.4318H105.141V24.4318ZM105.397 24.4318L106.305 24.8509C106.684 24.0288 107.255 23.3726 108.036 22.8686L107.493 22.0284L106.951 21.1882C105.857 21.8945 105.03 22.8405 104.489 24.0128L105.397 24.4318ZM107.493 22.0284L108.041 22.8651C108.771 22.3874 109.774 22.108 111.124 22.108V21.108V20.108C109.508 20.108 108.091 20.4421 106.946 21.1917L107.493 22.0284ZM111.124 21.108V22.108C112.314 22.108 113.307 22.3512 114.134 22.8035L114.614 21.9261L115.094 21.0488C113.926 20.4102 112.593 20.108 111.124 20.108V21.108ZM114.614 21.9261L114.14 22.8066C114.941 23.2378 115.577 23.8975 116.048 24.8307L116.941 24.3807L117.834 23.9307C117.196 22.665 116.282 21.6883 115.088 21.0457L114.614 21.9261ZM116.941 24.3807L116.049 24.8335C116.511 25.7424 116.772 26.9551 116.772 28.5227H117.772H118.772C118.772 26.7495 118.479 25.2008 117.832 23.9279L116.941 24.3807ZM117.772 28.5227H116.772V41H117.772H118.772V28.5227H117.772ZM117.772 41V40H114.755V41V42H117.772V41ZM114.755 41H115.755V28.7273H114.755H113.755V41H114.755ZM114.755 28.7273H115.755C115.755 27.0129 115.307 25.5386 114.285 24.4409L113.553 25.1222L112.821 25.8034C113.402 26.4274 113.755 27.3564 113.755 28.7273H114.755ZM113.553 25.1222L114.288 24.4445C113.263 23.3322 111.876 22.8182 110.255 22.8182V23.8182V24.8182C111.428 24.8182 112.24 25.1735 112.818 25.7998L113.553 25.1222ZM110.255 23.8182V22.8182C109.142 22.8182 108.112 23.0608 107.19 23.5686L107.672 24.4446L108.155 25.3206C108.749 24.9932 109.441 24.8182 110.255 24.8182V23.8182ZM107.672 24.4446L107.186 23.5709C106.26 24.0867 105.536 24.8387 105.016 25.7958L105.895 26.2727L106.774 26.7496C107.124 26.1045 107.585 25.6378 108.159 25.3183L107.672 24.4446ZM105.895 26.2727L105.016 25.7958C104.485 26.7759 104.243 27.9203 104.243 29.1875H105.243H106.243C106.243 28.1706 106.437 27.3718 106.774 26.7496L105.895 26.2727Z" fill="black" mask="url(#path-3-outside-1_5_10)"/>
</svg>
