<svg width="96" height="39" viewBox="0 0 96 39" fill="none" xmlns="http://www.w3.org/2000/svg">
<mask id="mask0_1_16" style="mask-type:luminance" maskUnits="userSpaceOnUse" x="0" y="0" width="96" height="39">
<path d="M96 0H0.5V39H96V0Z" fill="white"/>
</mask>
<g mask="url(#mask0_1_16)">
<path d="M19.069 20.9079H29.6801V31.7412H19.069V20.9079Z" fill="#2160FD"/>
<path d="M24.3746 4.70233C23.9362 4.67286 23.4939 4.6579 23.0482 4.6579C12.06 4.6579 3.15234 13.7521 3.15234 24.9704C3.15234 25.4251 3.16698 25.8763 3.19579 26.3235H16.4162V18.1986H24.3746V4.70233Z" fill="#2160FD"/>
<path d="M66.3302 37.9176H63.53V30.3288H66.3534C67.148 30.3288 67.832 30.4807 68.4053 30.7846C68.9788 31.086 69.4198 31.5194 69.7284 32.0851C70.0395 32.6508 70.1951 33.3278 70.1951 34.1158C70.1951 34.9063 70.0395 35.5856 69.7284 36.1538C69.4198 36.7219 68.9762 37.158 68.3977 37.4618C67.8216 37.7657 67.1325 37.9176 66.3302 37.9176ZM65.2001 36.5428H66.2608C66.7545 36.5428 67.1699 36.4589 67.5067 36.2909C67.8461 36.1205 68.1007 35.8573 68.2704 35.5016C68.4427 35.1434 68.5288 34.6815 68.5288 34.1158C68.5288 33.555 68.4427 33.0968 68.2704 32.741C68.1007 32.3853 67.8473 32.1234 67.5105 31.9555C67.1737 31.7875 66.7583 31.7035 66.2647 31.7035H65.2001V36.5428Z" fill="#2160FD"/>
<path d="M78.6914 34.1232C78.6914 34.9507 78.5281 35.6548 78.2016 36.2353C77.8775 36.8158 77.4353 37.2592 76.8747 37.5655C76.3167 37.8694 75.6893 38.0213 74.9924 38.0213C74.2905 38.0213 73.6605 37.8681 73.1024 37.5618C72.5444 37.2555 72.1034 36.8121 71.7794 36.2316C71.4555 35.6511 71.2934 34.9482 71.2934 34.1232C71.2934 33.2956 71.4555 32.5915 71.7794 32.011C72.1034 31.4305 72.5444 30.9883 73.1024 30.6845C73.6605 30.3782 74.2905 30.225 74.9924 30.225C75.6893 30.225 76.3167 30.3782 76.8747 30.6845C77.4353 30.9883 77.8775 31.4305 78.2016 32.011C78.5281 32.5915 78.6914 33.2956 78.6914 34.1232ZM76.9981 34.1232C76.9981 33.5871 76.9145 33.135 76.7474 32.7669C76.5829 32.3989 76.3501 32.1197 76.0493 31.9295C75.7484 31.7393 75.3962 31.6442 74.9924 31.6442C74.5887 31.6442 74.2364 31.7393 73.9356 31.9295C73.6347 32.1197 73.4007 32.3989 73.2336 32.7669C73.069 33.135 72.9867 33.5871 72.9867 34.1232C72.9867 34.6592 73.069 35.1113 73.2336 35.4794C73.4007 35.8474 73.6347 36.1266 73.9356 36.3168C74.2364 36.507 74.5887 36.6021 74.9924 36.6021C75.3962 36.6021 75.7484 36.507 76.0493 36.3168C76.3501 36.1266 76.5829 35.8474 76.7474 35.4794C76.9145 35.1113 76.9981 34.6592 76.9981 34.1232Z" fill="#2160FD"/>
<path d="M86.8983 32.9856H85.2089C85.1781 32.7756 85.115 32.5891 85.0199 32.4261C84.9248 32.2605 84.8027 32.1197 84.6535 32.0036C84.5043 31.8875 84.332 31.7986 84.1366 31.7368C83.9437 31.6751 83.7342 31.6442 83.5079 31.6442C83.099 31.6442 82.7429 31.7418 82.4395 31.9369C82.1361 32.1296 81.9008 32.4112 81.7337 32.7817C81.5664 33.1498 81.4829 33.5969 81.4829 34.1232C81.4829 34.6642 81.5664 35.1187 81.7337 35.4868C81.9034 35.8549 82.1399 36.1327 82.4433 36.3205C82.7467 36.5082 83.0978 36.6021 83.4963 36.6021C83.7201 36.6021 83.927 36.5737 84.1174 36.5169C84.3102 36.46 84.4812 36.3774 84.6304 36.2686C84.7795 36.1575 84.9029 36.0228 85.0006 35.8647C85.1009 35.7067 85.1703 35.5263 85.2089 35.3238L86.8983 35.3312C86.8546 35.6794 86.7453 36.0154 86.5705 36.339C86.3982 36.6602 86.1654 36.9479 85.8724 37.2024C85.5817 37.4543 85.2346 37.6545 84.8309 37.8027C84.4297 37.9485 83.9759 38.0213 83.4694 38.0213C82.7648 38.0213 82.1348 37.8681 81.5793 37.5618C81.0265 37.2555 80.5894 36.8121 80.2679 36.2316C79.9491 35.6511 79.7897 34.9482 79.7897 34.1232C79.7897 33.2956 79.9516 32.5915 80.2757 32.011C80.5996 31.4305 81.0394 30.9883 81.5948 30.6845C82.1502 30.3782 82.7751 30.225 83.4694 30.225C83.927 30.225 84.3513 30.2867 84.7422 30.4103C85.1357 30.5338 85.484 30.7142 85.7875 30.9513C86.0909 31.186 86.3377 31.4738 86.5281 31.8146C86.7209 32.1555 86.8443 32.5459 86.8983 32.9856Z" fill="#2160FD"/>
<path d="M92.3814 32.5113C92.3505 32.2123 92.2181 31.9802 91.9841 31.8146C91.7501 31.6491 91.4325 31.5664 91.0314 31.5664C90.7588 31.5664 90.5287 31.6035 90.3409 31.6776C90.1533 31.7492 90.0092 31.8493 89.909 31.9777C89.8112 32.1062 89.7624 32.2519 89.7624 32.415C89.7572 32.5508 89.7868 32.6693 89.8511 32.7706C89.9179 32.8719 90.0092 32.9597 90.1249 33.0338C90.2406 33.1053 90.3743 33.1683 90.5261 33.2227C90.6777 33.2746 90.8398 33.3191 91.0121 33.3561L91.7218 33.5191C92.0663 33.5932 92.3826 33.6921 92.6706 33.8156C92.9587 33.9391 93.208 34.0911 93.4189 34.2714C93.6297 34.4517 93.7931 34.6642 93.9088 34.9087C94.027 35.1532 94.0875 35.4337 94.0901 35.7498C94.0875 36.2142 93.9641 36.6169 93.7198 36.9579C93.4781 37.2963 93.1284 37.5593 92.6706 37.7471C92.2155 37.9324 91.6665 38.025 91.0236 38.025C90.3859 38.025 89.8305 37.9311 89.3574 37.7434C88.8868 37.5556 88.5191 37.2778 88.2542 36.9097C87.9919 36.5391 87.8544 36.0809 87.8415 35.535H89.4576C89.4757 35.7893 89.5515 36.0018 89.6852 36.1723C89.8215 36.3403 90.0028 36.4674 90.2291 36.5539C90.4579 36.638 90.7163 36.6799 91.0044 36.6799C91.2872 36.6799 91.5328 36.6404 91.741 36.5613C91.9519 36.4823 92.1152 36.3724 92.231 36.2316C92.3466 36.0908 92.4045 35.929 92.4045 35.7461C92.4045 35.5757 92.3518 35.4324 92.2463 35.3164C92.1435 35.2002 91.9918 35.1014 91.7912 35.0199C91.5932 34.9384 91.3503 34.8643 91.0622 34.7976L90.2021 34.5901C89.536 34.4344 89.0102 34.1911 88.6245 33.8601C88.2388 33.5291 88.0472 33.0831 88.0498 32.5224C88.0472 32.0629 88.1745 31.6615 88.4317 31.3181C88.6913 30.9748 89.0475 30.7068 89.5 30.514C89.9526 30.3213 90.467 30.225 91.0429 30.225C91.6292 30.225 92.1409 30.3213 92.5781 30.514C93.0178 30.7068 93.3598 30.9748 93.6041 31.3181C93.8483 31.6615 93.9743 32.0592 93.982 32.5113H92.3814Z" fill="#2160FD"/>
<mask id="path-8-outside-1_1_16" maskUnits="userSpaceOnUse" x="36.4924" y="3.07501" width="54" height="27" fill="black">
<rect fill="white" x="36.4924" y="3.07501" width="54" height="27"/>
<path d="M48.2197 4.80228H51.0379V21.4386C51.0379 22.9235 50.7652 24.1849 50.2197 25.2227C49.6742 26.2606 48.9053 27.0485 47.9129 27.5864C46.9205 28.1243 45.75 28.3932 44.4015 28.3932C43.1288 28.3932 41.9962 28.1621 41.0038 27.7C40.0114 27.2303 39.2311 26.5636 38.6629 25.7C38.0947 24.8364 37.8106 23.8099 37.8106 22.6205H40.5833C40.5833 23.2796 40.7462 23.8553 41.072 24.3477C41.4053 24.8326 41.8599 25.2114 42.4356 25.4841C43.0114 25.7568 43.6667 25.8932 44.4015 25.8932C45.2121 25.8932 45.9015 25.7227 46.4697 25.3818C47.0379 25.0409 47.4697 24.5409 47.7652 23.8818C48.0682 23.2152 48.2197 22.4008 48.2197 21.4386V4.80228ZM67.322 20.9386V10.6205H70.0038V28.075H67.322V25.1205H67.1402C66.7311 26.0068 66.0947 26.7606 65.2311 27.3818C64.3674 27.9955 63.2765 28.3023 61.9583 28.3023C60.8674 28.3023 59.8977 28.0636 59.0493 27.5864C58.2008 27.1015 57.5341 26.3743 57.0492 25.4046C56.5644 24.4273 56.322 23.1962 56.322 21.7114V10.6205H59.0038V21.5296C59.0038 22.8023 59.3599 23.8174 60.072 24.575C60.7917 25.3326 61.7083 25.7114 62.822 25.7114C63.4886 25.7114 64.1667 25.5409 64.8561 25.2C65.553 24.8591 66.1364 24.3364 66.6061 23.6318C67.0833 22.9273 67.322 22.0296 67.322 20.9386ZM77.5975 17.575V28.075H74.9157V10.6205H77.5066V13.3477H77.7339C78.143 12.4614 78.7642 11.7493 79.5975 11.2114C80.4309 10.6659 81.5066 10.3932 82.8248 10.3932C84.0066 10.3932 85.0407 10.6356 85.9271 11.1205C86.8135 11.5977 87.5028 12.325 87.9953 13.3023C88.4877 14.272 88.7339 15.4993 88.7339 16.9841V28.075H86.0521V17.1659C86.0521 15.7947 85.696 14.7265 84.9839 13.9614C84.2718 13.1886 83.2945 12.8023 82.0521 12.8023C81.196 12.8023 80.4309 12.9879 79.7566 13.3591C79.09 13.7303 78.5635 14.272 78.1771 14.9841C77.7907 15.6962 77.5975 16.5599 77.5975 17.575Z"/>
</mask>
<path d="M48.2197 4.80228H51.0379V21.4386C51.0379 22.9235 50.7652 24.1849 50.2197 25.2227C49.6742 26.2606 48.9053 27.0485 47.9129 27.5864C46.9205 28.1243 45.75 28.3932 44.4015 28.3932C43.1288 28.3932 41.9962 28.1621 41.0038 27.7C40.0114 27.2303 39.2311 26.5636 38.6629 25.7C38.0947 24.8364 37.8106 23.8099 37.8106 22.6205H40.5833C40.5833 23.2796 40.7462 23.8553 41.072 24.3477C41.4053 24.8326 41.8599 25.2114 42.4356 25.4841C43.0114 25.7568 43.6667 25.8932 44.4015 25.8932C45.2121 25.8932 45.9015 25.7227 46.4697 25.3818C47.0379 25.0409 47.4697 24.5409 47.7652 23.8818C48.0682 23.2152 48.2197 22.4008 48.2197 21.4386V4.80228ZM67.322 20.9386V10.6205H70.0038V28.075H67.322V25.1205H67.1402C66.7311 26.0068 66.0947 26.7606 65.2311 27.3818C64.3674 27.9955 63.2765 28.3023 61.9583 28.3023C60.8674 28.3023 59.8977 28.0636 59.0493 27.5864C58.2008 27.1015 57.5341 26.3743 57.0492 25.4046C56.5644 24.4273 56.322 23.1962 56.322 21.7114V10.6205H59.0038V21.5296C59.0038 22.8023 59.3599 23.8174 60.072 24.575C60.7917 25.3326 61.7083 25.7114 62.822 25.7114C63.4886 25.7114 64.1667 25.5409 64.8561 25.2C65.553 24.8591 66.1364 24.3364 66.6061 23.6318C67.0833 22.9273 67.322 22.0296 67.322 20.9386ZM77.5975 17.575V28.075H74.9157V10.6205H77.5066V13.3477H77.7339C78.143 12.4614 78.7642 11.7493 79.5975 11.2114C80.4309 10.6659 81.5066 10.3932 82.8248 10.3932C84.0066 10.3932 85.0407 10.6356 85.9271 11.1205C86.8135 11.5977 87.5028 12.325 87.9953 13.3023C88.4877 14.272 88.7339 15.4993 88.7339 16.9841V28.075H86.0521V17.1659C86.0521 15.7947 85.696 14.7265 84.9839 13.9614C84.2718 13.1886 83.2945 12.8023 82.0521 12.8023C81.196 12.8023 80.4309 12.9879 79.7566 13.3591C79.09 13.7303 78.5635 14.272 78.1771 14.9841C77.7907 15.6962 77.5975 16.5599 77.5975 17.575Z" fill="black"/>
<path d="M48.2197 4.80228V3.80228H47.2197V4.80228H48.2197ZM51.0379 4.80228H52.0379V3.80228H51.0379V4.80228ZM50.2197 25.2227L51.1049 25.688L51.1049 25.688L50.2197 25.2227ZM47.9129 27.5864L48.3894 28.4656L48.3894 28.4656L47.9129 27.5864ZM41.0038 27.7L40.576 28.6039L40.5817 28.6065L41.0038 27.7ZM38.6629 25.7L37.8275 26.2496L37.8275 26.2496L38.6629 25.7ZM37.8106 22.6205V21.6205H36.8106V22.6205H37.8106ZM40.5833 22.6205H41.5833V21.6205H40.5833V22.6205ZM41.072 24.3477L40.238 24.8995L40.2429 24.9069L40.2479 24.9143L41.072 24.3477ZM42.4356 25.4841L42.8637 24.5804L42.8637 24.5804L42.4356 25.4841ZM46.4697 25.3818L45.9552 24.5243L45.9552 24.5243L46.4697 25.3818ZM47.7652 23.8818L46.8548 23.468L46.8527 23.4728L47.7652 23.8818ZM48.2197 4.80228V5.80228H51.0379V4.80228V3.80228H48.2197V4.80228ZM51.0379 4.80228H50.0379V21.4386H51.0379H52.0379V4.80228H51.0379ZM51.0379 21.4386H50.0379C50.0379 22.8036 49.7871 23.8963 49.3345 24.7575L50.2197 25.2227L51.1049 25.688C51.7432 24.4734 52.0379 23.0434 52.0379 21.4386H51.0379ZM50.2197 25.2227L49.3345 24.7575C48.8775 25.6271 48.2476 26.2676 47.4364 26.7072L47.9129 27.5864L48.3894 28.4656C49.5631 27.8294 50.471 26.8941 51.1049 25.688L50.2197 25.2227ZM47.9129 27.5864L47.4364 26.7072C46.6162 27.1517 45.6159 27.3932 44.4015 27.3932V28.3932V29.3932C45.8841 29.3932 47.2247 29.0968 48.3894 28.4656L47.9129 27.5864ZM44.4015 28.3932V27.3932C43.2511 27.3932 42.2663 27.1848 41.4259 26.7935L41.0038 27.7L40.5817 28.6065C41.7261 29.1395 43.0065 29.3932 44.4015 29.3932V28.3932ZM41.0038 27.7L41.4316 26.7961C40.5942 26.3998 39.9593 25.8512 39.4983 25.1504L38.6629 25.7L37.8275 26.2496C38.5028 27.2761 39.4285 28.0608 40.576 28.6039L41.0038 27.7ZM38.6629 25.7L39.4983 25.1504C39.053 24.4735 38.8106 23.6447 38.8106 22.6205H37.8106H36.8106C36.8106 23.975 37.1365 25.1993 37.8275 26.2496L38.6629 25.7ZM37.8106 22.6205V23.6205H40.5833V22.6205V21.6205H37.8106V22.6205ZM40.5833 22.6205H39.5833C39.5833 23.4521 39.7916 24.2247 40.238 24.8995L41.072 24.3477L41.906 23.796C41.7008 23.4859 41.5833 23.107 41.5833 22.6205H40.5833ZM41.072 24.3477L40.2479 24.9143C40.6894 25.5564 41.286 26.0461 42.0075 26.3878L42.4356 25.4841L42.8637 24.5804C42.4337 24.3767 42.1212 24.1088 41.896 23.7812L41.072 24.3477ZM42.4356 25.4841L42.0075 26.3878C42.7362 26.733 43.5413 26.8932 44.4015 26.8932V25.8932V24.8932C43.7921 24.8932 43.2866 24.7807 42.8637 24.5804L42.4356 25.4841ZM44.4015 25.8932V26.8932C45.353 26.8932 46.2293 26.6923 46.9842 26.2393L46.4697 25.3818L45.9552 24.5243C45.5738 24.7532 45.0713 24.8932 44.4015 24.8932V25.8932ZM46.4697 25.3818L46.9842 26.2393C47.7437 25.7836 48.3064 25.119 48.6777 24.2909L47.7652 23.8818L46.8527 23.4728C46.633 23.9628 46.3321 24.2982 45.9552 24.5243L46.4697 25.3818ZM47.7652 23.8818L48.6755 24.2956C49.0531 23.465 49.2197 22.5007 49.2197 21.4386H48.2197H47.2197C47.2197 22.3008 47.0833 22.9653 46.8548 23.468L47.7652 23.8818ZM48.2197 21.4386H49.2197V4.80228H48.2197H47.2197V21.4386H48.2197ZM67.322 10.6205V9.62047H66.322V10.6205H67.322ZM70.0038 10.6205H71.0038V9.62047H70.0038V10.6205ZM70.0038 28.075V29.075H71.0038V28.075H70.0038ZM67.322 28.075H66.322V29.075H67.322V28.075ZM67.322 25.1205H68.322V24.1205H67.322V25.1205ZM67.1402 25.1205V24.1205H66.5003L66.2322 24.7014L67.1402 25.1205ZM65.2311 27.3818L65.8103 28.197L65.815 28.1936L65.2311 27.3818ZM59.0493 27.5864L58.5531 28.4546L58.559 28.458L59.0493 27.5864ZM57.0492 25.4046L56.1534 25.849L56.1548 25.8518L57.0492 25.4046ZM56.322 10.6205V9.62047H55.322V10.6205H56.322ZM59.0038 10.6205H60.0038V9.62047H59.0038V10.6205ZM60.072 24.575L59.3433 25.2599L59.347 25.2638L60.072 24.575ZM64.8561 25.2L64.4167 24.3017L64.4128 24.3036L64.8561 25.2ZM66.6061 23.6318L65.7781 23.071L65.774 23.0771L66.6061 23.6318ZM67.322 20.9386H68.322V10.6205H67.322H66.322V20.9386H67.322ZM67.322 10.6205V11.6205H70.0038V10.6205V9.62047H67.322V10.6205ZM70.0038 10.6205H69.0038V28.075H70.0038H71.0038V10.6205H70.0038ZM70.0038 28.075V27.075H67.322V28.075V29.075H70.0038V28.075ZM67.322 28.075H68.322V25.1205H67.322H66.322V28.075H67.322ZM67.322 25.1205V24.1205H67.1402V25.1205V26.1205H67.322V25.1205ZM67.1402 25.1205L66.2322 24.7014C65.9018 25.4172 65.3836 26.0403 64.6471 26.57L65.2311 27.3818L65.815 28.1936C66.8058 27.481 67.5603 26.5964 68.0481 25.5395L67.1402 25.1205ZM65.2311 27.3818L64.6519 26.5666C63.9949 27.0335 63.1202 27.3023 61.9583 27.3023V28.3023V29.3023C63.4329 29.3023 64.74 28.9575 65.8103 28.197L65.2311 27.3818ZM61.9583 28.3023V27.3023C61.0181 27.3023 60.2209 27.0981 59.5395 26.7148L59.0493 27.5864L58.559 28.458C59.5745 29.0292 60.7168 29.3023 61.9583 29.3023V28.3023ZM59.0493 27.5864L59.5454 26.7181C58.8868 26.3418 58.3503 25.7705 57.9437 24.9573L57.0492 25.4046L56.1548 25.8518C56.7179 26.978 57.5147 27.8612 58.5531 28.4546L59.0493 27.5864ZM57.0492 25.4046L57.9451 24.9601C57.5489 24.1616 57.322 23.0948 57.322 21.7114H56.322H55.322C55.322 23.2976 55.5799 24.693 56.1534 25.849L57.0492 25.4046ZM56.322 21.7114H57.322V10.6205H56.322H55.322V21.7114H56.322ZM56.322 10.6205V11.6205H59.0038V10.6205V9.62047H56.322V10.6205ZM59.0038 10.6205H58.0038V21.5296H59.0038H60.0038V10.6205H59.0038ZM59.0038 21.5296H58.0038C58.0038 22.9967 58.4197 24.2773 59.3433 25.2599L60.072 24.575L60.8006 23.8901C60.3 23.3576 60.0038 22.6079 60.0038 21.5296H59.0038ZM60.072 24.575L59.347 25.2638C60.2689 26.2342 61.4544 26.7114 62.822 26.7114V25.7114V24.7114C61.9623 24.7114 61.3144 24.431 60.797 23.8863L60.072 24.575ZM62.822 25.7114V26.7114C63.6644 26.7114 64.4933 26.495 65.2993 26.0964L64.8561 25.2L64.4128 24.3036C63.84 24.5869 63.3129 24.7114 62.822 24.7114V25.7114ZM64.8561 25.2L65.2955 26.0983C66.1657 25.6726 66.8795 25.0245 67.4381 24.1865L66.6061 23.6318L65.774 23.0771C65.3933 23.6483 64.9403 24.0456 64.4167 24.3017L64.8561 25.2ZM66.6061 23.6318L67.434 24.1927C68.0512 23.2816 68.322 22.1734 68.322 20.9386H67.322H66.322C66.322 21.8857 66.1155 22.573 65.7781 23.071L66.6061 23.6318ZM77.5975 28.075V29.075H78.5975V28.075H77.5975ZM74.9157 28.075H73.9157V29.075H74.9157V28.075ZM74.9157 10.6205V9.62047H73.9157V10.6205H74.9157ZM77.5066 10.6205H78.5066V9.62047H77.5066V10.6205ZM77.5066 13.3477H76.5066V14.3477H77.5066V13.3477ZM77.7339 13.3477V14.3477H78.3737L78.6419 13.7668L77.7339 13.3477ZM79.5975 11.2114L80.1399 12.0516L80.1452 12.0481L79.5975 11.2114ZM85.9271 11.1205L85.4472 11.9978L85.453 12.0009L85.9271 11.1205ZM87.9953 13.3023L87.1022 13.7523L87.1036 13.7551L87.9953 13.3023ZM88.7339 28.075V29.075H89.7339V28.075H88.7339ZM86.0521 28.075H85.0521V29.075H86.0521V28.075ZM84.9839 13.9614L84.2485 14.6391L84.2519 14.6427L84.9839 13.9614ZM79.7566 13.3591L79.2743 12.4831L79.2702 12.4854L79.7566 13.3591ZM78.1771 14.9841L77.2981 14.5072L77.2981 14.5072L78.1771 14.9841ZM77.5975 17.575H76.5975V28.075H77.5975H78.5975V17.575H77.5975ZM77.5975 28.075V27.075H74.9157V28.075V29.075H77.5975V28.075ZM74.9157 28.075H75.9157V10.6205H74.9157H73.9157V28.075H74.9157ZM74.9157 10.6205V11.6205H77.5066V10.6205V9.62047H74.9157V10.6205ZM77.5066 10.6205H76.5066V13.3477H77.5066H78.5066V10.6205H77.5066ZM77.5066 13.3477V14.3477H77.7339V13.3477V12.3477H77.5066V13.3477ZM77.7339 13.3477L78.6419 13.7668C78.9701 13.0555 79.4632 12.4883 80.1398 12.0516L79.5975 11.2114L79.0552 10.3712C78.0653 11.0102 77.3159 11.8672 76.8259 12.9287L77.7339 13.3477ZM79.5975 11.2114L80.1452 12.0481C80.7708 11.6386 81.6395 11.3932 82.8248 11.3932V10.3932V9.39319C81.3738 9.39319 80.0909 9.69326 79.0499 10.3747L79.5975 11.2114ZM82.8248 10.3932V11.3932C83.8675 11.3932 84.7312 11.6061 85.4472 11.9978L85.9271 11.1205L86.407 10.2431C85.3503 9.66511 84.1458 9.39319 82.8248 9.39319V10.3932ZM85.9271 11.1205L85.453 12.0009C86.1431 12.3725 86.6936 12.9413 87.1022 13.7523L87.9953 13.3023L88.8883 12.8523C88.3121 11.7087 87.4838 10.823 86.4012 10.24L85.9271 11.1205ZM87.9953 13.3023L87.1036 13.7551C87.5037 14.5428 87.7339 15.602 87.7339 16.9841H88.7339H89.7339C89.7339 15.3965 89.4717 14.0012 88.8869 12.8495L87.9953 13.3023ZM88.7339 16.9841H87.7339V28.075H88.7339H89.7339V16.9841H88.7339ZM88.7339 28.075V27.075H86.0521V28.075V29.075H88.7339V28.075ZM86.0521 28.075H87.0521V17.1659H86.0521H85.0521V28.075H86.0521ZM86.0521 17.1659H87.0521C87.0521 15.6229 86.6485 14.2821 85.7159 13.2801L84.9839 13.9614L84.2519 14.6427C84.7435 15.1709 85.0521 15.9665 85.0521 17.1659H86.0521ZM84.9839 13.9614L85.7193 13.2837C84.7832 12.268 83.5184 11.8023 82.0521 11.8023V12.8023V13.8023C83.0706 13.8023 83.7604 14.1093 84.2486 14.6391L84.9839 13.9614ZM82.0521 12.8023V11.8023C81.0467 11.8023 80.1124 12.0217 79.2743 12.4831L79.7566 13.3591L80.2389 14.2351C80.7494 13.9541 81.3454 13.8023 82.0521 13.8023V12.8023ZM79.7566 13.3591L79.2702 12.4854C78.4272 12.9548 77.7692 13.639 77.2981 14.5072L78.1771 14.9841L79.0561 15.461C79.3578 14.9049 79.7527 14.5059 80.2431 14.2328L79.7566 13.3591ZM78.1771 14.9841L77.2981 14.5072C76.8147 15.3983 76.5975 16.4347 76.5975 17.575H77.5975H78.5975C78.5975 16.685 78.7668 15.9942 79.0561 15.461L78.1771 14.9841Z" fill="black" mask="url(#path-8-outside-1_1_16)"/>
</g>
</svg>
